<svg width="19" height="20" viewBox="0 0 19 20" fill="none" xmlns="http://www.w3.org/2000/svg">
<path fill-rule="evenodd" clip-rule="evenodd" d="M9.13706 20C9.13706 20 18.2741 14.1833 18.2741 9.13706C18.2741 4.0908 14.1833 0 9.13706 0C4.0908 0 0 4.0908 0 9.13706C0 14.1833 9.13706 20 9.13706 20ZM8.45898 13.3008L4.92969 10.2185C4.33594 9.70143 4 8.97607 4 8.21782V8.11184C4 6.83469 4.98633 5.74573 6.33203 5.53561C7.22266 5.39675 7.86328 5.66899 8.5 6.26463L9 6.75L9.5 6.26463C10.1367 5.66899 10.7773 5.39675 11.668 5.53561C13.0137 5.74573 14 6.83469 14 8.11184V8.21782C14 8.97607 13.6641 9.70143 13.0703 10.2185L9.54102 13.3008C9.39453 13.4287 9.20117 13.5 9 13.5C8.79883 13.5 8.60547 13.4287 8.45898 13.3008Z" fill="#06B6D4"/>
</svg>
