<svg width="92" height="18" viewBox="0 0 92 18" fill="none" xmlns="http://www.w3.org/2000/svg">
<path fill-rule="evenodd" clip-rule="evenodd" d="M4.63264 0.9375H2.981H1.75235H0V18H3.53491V14.0156L3.18931 5.85576L6.73747 18H9.07393L12.6221 5.85575L12.2765 14.0156V18H15.8215V0.9375H14.0591H12.8304H11.1788L7.9057 12.8086L4.63264 0.9375ZM20.5648 17.5195C21.2631 17.8398 22.0553 18 22.9416 18C23.6398 18 24.2709 17.8945 24.8349 17.6836C25.3989 17.4648 25.8823 17.1836 26.2851 16.8398C26.6947 16.4961 27.0102 16.1406 27.2318 15.7734L25.6909 13.6406C25.3687 14.1094 24.9826 14.4453 24.5328 14.6484C24.0829 14.8515 23.6264 14.9531 23.1631 14.9531C22.7804 14.9531 22.438 14.8789 22.1359 14.7304C21.8405 14.582 21.5853 14.375 21.3705 14.1094C21.1624 13.8359 21.0012 13.5078 20.8871 13.125C20.8461 12.9789 20.8129 12.8266 20.7876 12.668H27.5239V11.0625C27.5239 10.1094 27.4097 9.24999 27.1814 8.48437C26.9599 7.71874 26.6343 7.0664 26.2046 6.52734C25.7816 5.98828 25.2646 5.57422 24.6536 5.28516C24.0427 4.99609 23.3511 4.85156 22.579 4.85156C21.7062 4.85156 20.9408 5.01953 20.2828 5.35547C19.6249 5.68359 19.0777 6.14453 18.6413 6.73828C18.2049 7.33203 17.8759 8.02734 17.6543 8.82421C17.4328 9.61327 17.322 10.4726 17.322 11.4023V11.8476C17.322 12.6758 17.4462 13.4609 17.6946 14.2031C17.9497 14.9453 18.3156 15.6015 18.7923 16.1719C19.2757 16.7422 19.8666 17.1914 20.5648 17.5195ZM20.791 10.1953C20.7959 10.1521 20.8011 10.1091 20.8065 10.0664C20.8602 9.64452 20.9509 9.27343 21.0784 8.95312C21.2127 8.62499 21.3974 8.36718 21.6323 8.17968C21.874 7.99218 22.1795 7.89843 22.5488 7.89843C22.9046 7.89843 23.2068 7.97656 23.4552 8.13281C23.7036 8.28906 23.8916 8.51562 24.0192 8.81249C24.1534 9.10937 24.2172 9.46874 24.2105 9.89061V10.1953H20.791ZM31.9271 18V9.18005C31.9491 9.12959 31.9721 9.08065 31.996 9.03324C32.1395 8.7523 32.3118 8.53379 32.5128 8.37771C32.7137 8.22163 32.9405 8.14359 33.1932 8.14359C33.4343 8.14359 33.6382 8.19041 33.8047 8.28406C33.9712 8.37771 34.0975 8.5611 34.1837 8.83424C34.2755 9.10738 34.3215 9.51319 34.3215 10.0517V18H37.2241V9.5483C37.2241 9.42242 37.2224 9.29942 37.219 9.17931C37.2398 9.12911 37.2615 9.08042 37.2843 9.03324C37.4222 8.7523 37.5915 8.53379 37.7925 8.37771C37.9935 8.22163 38.2318 8.14359 38.5074 8.14359C38.7371 8.14359 38.9352 8.19431 39.1017 8.29577C39.2682 8.38941 39.3945 8.57281 39.4807 8.84595C39.5725 9.11128 39.6185 9.50538 39.6185 10.0282V18H42.5297V10.0282C42.5297 9.10738 42.4579 8.33478 42.3143 7.71047C42.1708 7.07834 41.9698 6.57109 41.7114 6.18869C41.453 5.8063 41.1458 5.52926 40.7898 5.35757C40.4338 5.18588 40.0434 5.10004 39.6185 5.10004C39.0328 5.10004 38.5189 5.25221 38.0767 5.55657C37.6346 5.86092 37.2643 6.29014 36.9657 6.84423C36.9381 6.89637 36.9112 6.94938 36.8849 7.00325C36.7744 6.66626 36.6377 6.37913 36.4747 6.14187C36.2336 5.78288 35.9465 5.52145 35.6134 5.35757C35.2804 5.18588 34.91 5.10004 34.5024 5.10004C33.9167 5.10004 33.3999 5.25221 32.952 5.55657C32.5167 5.85626 32.1481 6.27701 31.8464 6.81883L31.7462 5.33416H29.0245V18H31.9271ZM44.0302 11.3086V11.5547C44.0302 12.4765 44.1444 13.332 44.3726 14.1211C44.6009 14.9023 44.9366 15.5859 45.3797 16.1719C45.8229 16.75 46.3734 17.1992 47.0314 17.5195C47.6893 17.8398 48.4447 18 49.2973 18C50.15 18 50.902 17.8398 51.5532 17.5195C52.2045 17.1992 52.7517 16.75 53.1948 16.1719C53.6379 15.5859 53.9736 14.9023 54.2019 14.1211C54.4302 13.332 54.5443 12.4765 54.5443 11.5547V11.3086C54.5443 10.3789 54.4302 9.52343 54.2019 8.74218C53.9736 7.95312 53.6379 7.26953 53.1948 6.6914C52.7517 6.11328 52.2011 5.66406 51.5432 5.34375C50.8919 5.01562 50.1366 4.85156 49.2772 4.85156C48.4245 4.85156 47.6726 5.01562 47.0213 5.34375C46.37 5.66406 45.8229 6.11328 45.3797 6.6914C44.9366 7.26953 44.6009 7.95312 44.3726 8.74218C44.1444 9.52343 44.0302 10.3789 44.0302 11.3086ZM47.4241 11.5547V11.3086C47.4241 10.8476 47.4543 10.4141 47.5148 10.0078C47.5752 9.59374 47.6759 9.23046 47.8169 8.91796C47.9579 8.59765 48.1459 8.34765 48.3809 8.16796C48.6226 7.98827 48.9214 7.89843 49.2772 7.89843C49.6397 7.89843 49.9419 7.98827 50.1836 8.16796C50.4253 8.34765 50.6166 8.59765 50.7576 8.91796C50.8986 9.23046 50.9993 9.59374 51.0597 10.0078C51.1202 10.4141 51.1504 10.8476 51.1504 11.3086V11.5547C51.1504 12.0312 51.1202 12.4765 51.0597 12.8906C50.9993 13.3047 50.8986 13.668 50.7576 13.9804C50.6166 14.2851 50.4253 14.5234 50.1836 14.6953C49.9486 14.8672 49.6532 14.9531 49.2973 14.9531C48.9348 14.9531 48.6327 14.8672 48.3909 14.6953C48.1492 14.5234 47.9579 14.2851 47.8169 13.9804C47.6759 13.668 47.5752 13.3047 47.5148 12.8906C47.4543 12.4765 47.4241 12.0312 47.4241 11.5547Z" fill="#94A3B8"/>
<path fill-rule="evenodd" clip-rule="evenodd" d="M92.0001 18V0H88.0376V18H92.0001ZM86.3495 5.3203V18H82.3871V5.3203H86.3495ZM82.1526 2.05078C82.1526 1.48828 82.3558 1.02734 82.7622 0.667968C83.1686 0.308593 83.6961 0.128906 84.3448 0.128906C84.9935 0.128906 85.5211 0.308593 85.9275 0.667968C86.3339 1.02734 86.5371 1.48828 86.5371 2.05078C86.5371 2.61328 86.3339 3.07421 85.9275 3.43359C85.5211 3.79296 84.9935 3.97265 84.3448 3.97265C83.6961 3.97265 83.1686 3.79296 82.7622 3.43359C82.3558 3.07421 82.1526 2.61328 82.1526 2.05078ZM76.3221 16.6283C76.1901 16.7917 76.043 16.9482 75.8807 17.0976C75.5915 17.3633 75.2359 17.582 74.8138 17.7539C74.3918 17.9179 73.8799 18 73.2781 18C72.4966 18 71.7775 17.8398 71.121 17.5195C70.4723 17.1992 69.9526 16.7539 69.5618 16.1836C69.1711 15.6054 68.9757 14.9414 68.9757 14.1914C68.9757 13.5351 69.0929 12.9492 69.3274 12.4336C69.5697 11.918 69.9331 11.4805 70.4176 11.1211C70.9022 10.7617 71.5196 10.4883 72.2699 10.3008C73.0202 10.1133 73.9033 10.0195 74.9194 10.0195H76.1386V9.35155C76.1386 8.99218 76.0878 8.68359 75.9862 8.42577C75.8846 8.16796 75.7244 7.96874 75.5055 7.82812C75.2867 7.67968 74.9936 7.60546 74.6263 7.60546C74.3293 7.60546 74.0753 7.65624 73.8643 7.75781C73.6532 7.85937 73.493 8.01171 73.3836 8.21484C73.2742 8.41796 73.2195 8.67577 73.2195 8.98827H69.2688C69.2688 8.40234 69.3977 7.85937 69.6556 7.35937C69.9214 6.85156 70.2965 6.41015 70.7811 6.03515C71.2734 5.66015 71.8596 5.37109 72.5395 5.16797C73.2273 4.95703 73.9932 4.85156 74.8373 4.85156C75.8455 4.85156 76.7443 5.01953 77.5336 5.35547C78.3308 5.6914 78.96 6.19531 79.4211 6.86718C79.8822 7.53124 80.1127 8.36718 80.1127 9.37499V14.5664C80.1127 15.3945 80.1596 16.0234 80.2534 16.4531C80.3472 16.875 80.4801 17.2461 80.652 17.5664V17.7656H76.6896C76.5354 17.4445 76.4129 17.0654 76.3221 16.6283ZM76.1386 14.1675C76.111 14.2177 76.0798 14.2687 76.0448 14.3203C75.8807 14.5625 75.6423 14.7695 75.3297 14.9414C75.0249 15.1054 74.6536 15.1875 74.216 15.1875C73.9737 15.1875 73.7549 15.1367 73.5595 15.0351C73.3641 14.9336 73.2078 14.7929 73.0905 14.6133C72.9811 14.4258 72.9264 14.2148 72.9264 13.9804C72.9264 13.7383 72.9577 13.5078 73.0202 13.289C73.0905 13.0703 73.2 12.875 73.3484 12.7031C73.5048 12.5234 73.708 12.3828 73.9581 12.2812C74.216 12.1797 74.5286 12.1289 74.8959 12.1289H76.1386V14.1675ZM59.8838 6.79701C59.9052 6.76932 59.9269 6.74192 59.9488 6.71483C60.3787 6.18358 60.8906 5.78124 61.4846 5.5078C62.0863 5.22655 62.7546 5.08593 63.4892 5.08593C64.0754 5.08593 64.6108 5.17186 65.0953 5.34374C65.5877 5.51561 66.0097 5.79296 66.3614 6.17577C66.7209 6.55858 66.9945 7.06639 67.182 7.6992C67.3774 8.3242 67.4751 9.09764 67.4751 10.0195V18H63.501V10.0078C63.501 9.49998 63.4306 9.11326 63.2899 8.84764C63.1493 8.5742 62.9461 8.3867 62.6803 8.28514C62.4146 8.18358 62.0903 8.1328 61.7073 8.1328C61.3009 8.1328 60.957 8.21092 60.6757 8.36717C60.3943 8.52342 60.1676 8.74217 59.9957 9.02342V18H56.045V5.3203H59.7495L59.8838 6.79701Z" fill="#06B6D4"/>
</svg>
