<svg xmlns="http://www.w3.org/2000/svg" fill="none" viewBox="0 0 4 4" height="4" width="4" id="Location-Heart-Pin--Streamline-Flex.svg"><desc>Location Heart Pin Streamline Icon: https://streamlinehq.com</desc><g id="Location-Heart-Pin--Streamline-Flex.svg"><path id="Union" fill="#8FBFFA" fill-rule="evenodd" d="M1.9808571428571426 0.07142857142857142A1.6565714285714286 1.6565714285714286 0 0 0 0.3285714285714285 1.6099999999999999c-0.029428571428571425 0.41257142857142853 0.06285714285714285 0.8408571428571429 0.3228571428571428 1.1822857142857142 0.30885714285714283 0.4057142857142857 0.6237142857142857 0.6845714285714285 1.1159999999999999 1.0122857142857142a0.42 0.42 0 0 0 0.4651428571428571 0c0.49228571428571427 -0.3277142857142857 0.8071428571428572 -0.6065714285714287 1.1159999999999999 -1.0122857142857142 0.26 -0.3414285714285714 0.3522857142857143 -0.7697142857142857 0.3228571428571428 -1.1822857142857142A1.6565714285714286 1.6565714285714286 0 0 0 2.019142857142857 0.07142857142857142h-0.038285714285714284Z" clip-rule="evenodd" stroke-width="1"></path><path id="Vector" fill="#2859C5" d="M2 1.3477142857142856c-0.38 -0.46571428571428564 -0.7808571428571428 -0.13485714285714284 -0.7859999999999999 0.222C1.2139999999999997 2.101142857142857 1.8497142857142856 2.5371428571428574 2 2.5371428571428574c0.15028571428571427 0 0.7857142857142857 -0.436 0.7857142857142857 -0.9674285714285714C2.7808571428571427 1.2128571428571429 2.38 0.8817142857142857 2 1.3477142857142856Z" stroke-width="1"></path></g></svg>